<svg width="289" height="162" viewBox="0 0 289 162" fill="none" xmlns="http://www.w3.org/2000/svg">
<path d="M60.8206 161.383H16.6685C16.6685 161.383 15.7735 148.237 21.0686 148.087C26.3637 147.938 25.7671 153.914 32.405 145.697C39.0429 137.48 47.0973 137.929 48.1415 142.784C49.1856 147.64 46.1279 151.523 51.7214 150.328C57.3148 149.133 65.3699 152.27 60.8206 161.383Z" fill="#E6E6E6"/>
<path d="M37.9988 161.386L37.8496 161.38C38.1972 152.725 40.007 147.164 41.4644 144.023C43.0464 140.612 44.571 139.231 44.5864 139.218L44.6857 139.329C44.6706 139.343 43.1639 140.71 41.5944 144.097C40.1451 147.225 38.3451 152.763 37.9988 161.386Z" fill="white"/>
<path d="M53.9791 161.404L53.8359 161.362C54.9463 157.694 56.9479 154.359 59.6614 151.655L59.7616 151.766C57.0682 154.451 55.0814 157.762 53.9791 161.404Z" fill="white"/>
<path d="M23.623 161.394L23.4751 161.373C23.9565 158.128 23.4472 154.813 22.0139 151.863C21.4264 150.626 20.6486 149.489 19.709 148.493L19.8123 148.385C20.7647 149.393 21.5531 150.544 22.149 151.797C23.5951 154.774 24.1089 158.119 23.623 161.394Z" fill="white"/>
<path d="M66.8125 161.583H11.9065L11.8939 161.397C11.8625 160.933 11.1619 150.003 14.6982 146.102C15.049 145.69 15.4821 145.357 15.9696 145.122C16.457 144.888 16.9881 144.759 17.5285 144.742C19.8335 144.676 21.2821 145.541 22.4506 146.235C24.6528 147.544 26.1074 148.408 31.3972 141.86C37.1272 134.767 43.3101 133.241 46.8643 134.089C49.1607 134.638 50.7434 136.188 51.2066 138.342C51.6463 140.381 51.5056 142.298 51.3931 143.838C51.2729 145.485 51.178 146.787 51.8538 147.377C52.4191 147.869 53.5436 147.913 55.3964 147.517C59.1647 146.712 64.424 147.401 67.0634 150.817C68.4834 152.655 69.6023 155.995 66.8677 161.473L66.8125 161.583ZM12.2811 161.183H66.5653C68.6031 157.043 68.6668 153.545 66.7478 151.062C64.3263 147.928 59.2463 147.104 55.4796 147.908C53.4663 148.339 52.2671 148.268 51.5916 147.678C50.7654 146.957 50.8668 145.568 50.995 143.81C51.1055 142.295 51.2427 140.41 50.8163 138.427C50.3867 136.429 48.9123 134.99 46.7713 134.479C43.3305 133.657 37.3191 135.164 31.7071 142.113C26.201 148.929 24.542 147.944 22.2468 146.579C21.0638 145.876 19.721 145.079 17.5395 145.141C17.0529 145.157 16.5751 145.274 16.1365 145.486C15.698 145.698 15.3086 145.999 14.9934 146.371C11.8161 149.876 12.2036 159.705 12.2814 161.183H12.2811Z" fill="#2F2E41"/>
<path d="M246.216 161.805H192.136L192.125 161.502L189.543 87.535H248.808L246.216 161.805ZM192.742 161.176H245.609L248.158 88.1641H190.193L192.742 161.176Z" fill="#3F3D56"/>
<path d="M205.035 101.24H200.922V152.221H205.035V101.24Z" fill="#3F3D56"/>
<path d="M221.232 101.24H217.118V152.221H221.232V101.24Z" fill="#3F3D56"/>
<path d="M237.428 101.24H233.314V152.221H237.428V101.24Z" fill="#3F3D56"/>
<path d="M283.173 109.255L282.907 109.087L215.732 66.5708L221.559 57.3362L221.825 57.5042L288.999 100.021L283.173 109.255ZM216.599 66.3751L282.977 108.387L288.133 100.216L221.755 58.2038L216.599 66.3751Z" fill="#3F3D56"/>
<path d="M266.955 63.1441C265.002 61.9064 262.736 61.2558 260.425 61.2694C258.114 61.283 255.856 61.9602 253.918 63.2207C251.98 64.4812 250.444 66.2721 249.492 68.3808C248.54 70.4895 248.212 72.8276 248.546 75.1175L251.749 77.1448C250.944 75.2728 250.759 73.192 251.22 71.2068C251.682 69.2217 252.765 67.4366 254.313 66.1129C255.86 64.7892 257.79 63.9965 259.82 63.8508C261.85 63.705 263.873 64.214 265.593 65.3032C267.313 66.3923 268.64 68.0044 269.379 69.9033C270.118 71.8023 270.231 73.8884 269.701 75.8562C269.171 77.824 268.025 79.5701 266.433 80.8389C264.84 82.1076 262.884 82.8323 260.85 82.9069L264.053 84.9343C266.262 84.2551 268.23 82.9554 269.724 81.1895C271.217 79.4237 272.174 77.2657 272.48 74.9717C272.785 72.6777 272.428 70.344 271.449 68.2475C270.47 66.151 268.911 64.3798 266.957 63.1441H266.955Z" fill="#3F3D56"/>
<path d="M285.45 161.371H0V162H285.45V161.371Z" fill="#3F3D56"/>
<path d="M124.681 157.079H120.107L117.931 139.411H124.682L124.681 157.079Z" fill="#FEB8B8"/>
<path d="M111.287 161.332H125.66V155.77H116.763C115.311 155.77 113.918 156.348 112.891 157.376C111.864 158.405 111.287 159.8 111.287 161.255V161.332Z" fill="#2F2E41"/>
<path d="M123.073 129.702L126.228 133.019L140.501 122.411L135.845 117.517L123.073 129.702Z" fill="#FEB8B8"/>
<path d="M129.478 134.538L123.339 128.087L119.318 131.925L129.236 142.347L129.292 142.294C129.812 141.797 130.23 141.202 130.521 140.543C130.812 139.884 130.971 139.175 130.988 138.455C131.006 137.734 130.881 137.018 130.622 136.346C130.363 135.674 129.974 135.06 129.478 134.538V134.538Z" fill="#2F2E41"/>
<path d="M91.2401 81.2997C90.9507 80.8334 90.7668 80.3091 90.7015 79.7639C90.6362 79.2186 90.691 78.6657 90.8621 78.144C91.0332 77.6223 91.3164 77.1445 91.6918 76.7442C92.0672 76.3439 92.5256 76.0309 93.0348 75.8273L110.99 29.9946L117.989 34.1918L98.0432 78.1603C98.3282 79.04 98.2811 79.9938 97.9108 80.841C97.5405 81.6882 96.8728 82.3699 96.0342 82.7569C95.1955 83.1439 94.2442 83.2093 93.3606 82.9408C92.477 82.6722 91.7225 82.0883 91.2401 81.2997Z" fill="#FEB8B8"/>
<path d="M159.394 84.5849C158.847 84.5458 158.315 84.3869 157.836 84.1195C157.357 83.8522 156.942 83.4828 156.621 83.0375C156.3 82.5922 156.08 82.0818 155.977 81.5422C155.874 81.0026 155.891 80.447 156.026 79.9145L129.536 38.4403L137.039 35.2323L160.853 77.2266C161.732 77.5114 162.477 78.1096 162.945 78.9078C163.413 79.7059 163.572 80.6485 163.392 81.5564C163.212 82.4644 162.706 83.2745 161.969 83.833C161.232 84.3915 160.315 84.6596 159.394 84.5862V84.5849Z" fill="#FEB8B8"/>
<path d="M111.167 76.7105L115.856 146.504L127.061 145.514L129.368 94.022L135.629 116.136L149.141 117.127L143.793 73.4097L111.167 76.7105Z" fill="#2F2E41"/>
<path d="M137.608 112.836L135.629 116.137L121.789 125.709L131.676 130.99C131.676 130.99 150.79 120.428 149.143 117.127L137.608 112.836Z" fill="#2F2E41"/>
<path d="M101.355 48.4725L105.256 37.4646C106.124 35.0154 107.468 32.7628 109.211 30.8372C110.954 28.9117 113.06 27.3514 115.409 26.2467C120.688 24.2988 126.43 23.984 131.89 25.3431L133.31 25.696C137.095 26.6148 140.641 28.3302 143.713 30.7282C146.116 32.6259 148.279 35.0288 148.471 37.6134C148.472 37.6189 148.474 37.6243 148.476 37.6295C149.142 40.5519 149.471 55.7349 149.471 55.7349H143.599L144.528 76.1991L144.453 76.051C144.453 76.051 110.583 82.4704 110.583 79.1696V58.0446L109.889 50.3957L101.355 48.4725Z" fill="#CCCCCC"/>
<path d="M132.969 22.4817C138.153 22.4817 142.355 18.273 142.355 13.0813C142.355 7.88961 138.153 3.68091 132.969 3.68091C127.785 3.68091 123.583 7.88961 123.583 13.0813C123.583 18.273 127.785 22.4817 132.969 22.4817Z" fill="#FEB8B8"/>
<path d="M134.375 8.86559L141.663 9.15809C142.58 9.15526 143.581 9.12286 144.28 8.52907C145.332 7.63303 145.156 5.94222 144.592 4.67915C143.022 1.16229 139.52 -0.097632 135.674 0.00584185C131.828 0.109316 127.798 1.41484 125.727 4.66059C123.656 7.90633 123.097 12.005 123.877 15.7766C124.778 13.8588 126.167 12.2115 127.903 10.999C129.639 9.78651 131.662 9.05134 133.771 8.86685L134.375 8.86559Z" fill="#2F2E41"/>
<path d="M177.653 100.815L151.274 82.2985C151.029 82.1258 150.862 81.8628 150.81 81.5672C150.758 81.2716 150.825 80.9674 150.997 80.7213L171.701 51.1344C171.874 50.889 172.136 50.722 172.431 50.67C172.726 50.618 173.03 50.6853 173.276 50.857L199.655 69.3732C199.9 69.5459 200.066 69.8089 200.118 70.1045C200.17 70.4001 200.103 70.7043 199.932 70.9504L179.228 100.536C179.056 100.782 178.793 100.949 178.498 101.002C178.202 101.054 177.898 100.987 177.653 100.815Z" fill="#FF647C"/>
<path d="M183.584 80.7234L168.106 69.8585C167.927 69.7328 167.774 69.5731 167.657 69.3884C167.539 69.2037 167.46 68.9977 167.422 68.782C167.384 68.5664 167.389 68.3455 167.436 68.1317C167.484 67.918 167.572 67.7157 167.698 67.5365C167.823 67.3572 167.983 67.2044 168.167 67.0869C168.352 66.9693 168.557 66.8893 168.773 66.8514C168.988 66.8135 169.209 66.8184 169.422 66.8658C169.635 66.9133 169.837 67.0024 170.016 67.1281L185.495 77.993C185.856 78.2468 186.103 78.634 186.179 79.0694C186.255 79.5049 186.156 79.953 185.903 80.315C185.649 80.6771 185.263 80.9235 184.828 81.0001C184.393 81.0767 183.946 80.9772 183.584 80.7234Z" fill="white"/>
<path d="M180.033 85.7998L164.554 74.9349C164.375 74.8093 164.222 74.6496 164.105 74.4649C163.987 74.2802 163.907 74.074 163.869 73.8583C163.831 73.6426 163.836 73.4215 163.883 73.2077C163.931 72.9938 164.02 72.7914 164.145 72.612C164.271 72.4327 164.43 72.2798 164.615 72.1622C164.799 72.0447 165.005 71.9647 165.221 71.9268C165.436 71.889 165.657 71.894 165.87 71.9416C166.084 71.9893 166.286 72.0786 166.465 72.2045L181.943 83.0694C182.304 83.3233 182.55 83.7105 182.626 84.1457C182.703 84.5809 182.603 85.0287 182.35 85.3906C182.097 85.7524 181.71 85.9988 181.276 86.0755C180.841 86.1523 180.394 86.0531 180.033 85.7998Z" fill="white"/>
<path d="M176.442 90.9309L160.963 80.066C160.784 79.9403 160.632 79.7806 160.514 79.5959C160.397 79.4112 160.317 79.2052 160.279 78.9896C160.241 78.774 160.246 78.553 160.294 78.3393C160.341 78.1255 160.43 77.9233 160.555 77.744C160.681 77.5647 160.84 77.4119 161.025 77.2944C161.209 77.1768 161.415 77.0968 161.63 77.0589C161.845 77.021 162.066 77.0259 162.279 77.0734C162.493 77.1208 162.695 77.21 162.874 77.3356L178.352 88.2005C178.714 88.4543 178.96 88.8415 179.036 89.2769C179.113 89.7124 179.013 90.1604 178.76 90.5225C178.507 90.8846 178.12 91.131 177.685 91.2076C177.251 91.2842 176.803 91.1847 176.442 90.9309V90.9309Z" fill="white"/>
<path d="M183.542 70.6811L177.546 66.4728C177.367 66.3473 177.214 66.1876 177.097 66.0028C176.979 65.8181 176.899 65.612 176.861 65.3963C176.823 65.1806 176.828 64.9595 176.875 64.7456C176.923 64.5318 177.012 64.3294 177.137 64.15C177.263 63.9706 177.423 63.8178 177.607 63.7002C177.792 63.5826 177.997 63.5026 178.213 63.4648C178.428 63.4269 178.649 63.432 178.863 63.4796C179.076 63.5273 179.278 63.6166 179.457 63.7424L185.452 67.9507C185.814 68.2045 186.06 68.5917 186.136 69.0272C186.213 69.4626 186.113 69.9107 185.86 70.2727C185.607 70.6348 185.22 70.8812 184.785 70.9578C184.351 71.0344 183.903 70.9349 183.542 70.6811Z" fill="white"/>
</svg>
