<svg width="289" height="78" viewBox="0 0 289 78" fill="none" xmlns="http://www.w3.org/2000/svg">
<path d="M73.515 35C73.2683 35 73.0463 34.9137 72.849 34.741C72.6763 34.5437 72.59 34.3217 72.59 34.075V10.025C72.59 9.75367 72.6763 9.53167 72.849 9.359C73.0463 9.18633 73.2683 9.1 73.515 9.1H78.177C78.4483 9.1 78.6703 9.18633 78.843 9.359C79.0157 9.53167 79.102 9.75367 79.102 10.025V18.239L85.947 9.803C86.243 9.33433 86.724 9.1 87.39 9.1H92.718C92.94 9.1 93.125 9.18633 93.273 9.359C93.421 9.507 93.495 9.67967 93.495 9.877C93.495 10.0497 93.458 10.1977 93.384 10.321L84.504 21.495L94.05 33.779C94.1487 33.8777 94.198 34.0257 94.198 34.223C94.198 34.4203 94.124 34.6053 93.976 34.778C93.828 34.926 93.643 35 93.421 35H87.908C87.316 35 86.8227 34.7533 86.428 34.26L79.102 25.121V34.075C79.102 34.3463 79.0157 34.5683 78.843 34.741C78.6703 34.9137 78.4483 35 78.177 35H73.515ZM97.6052 12.985C97.3338 12.985 97.1118 12.8987 96.9392 12.726C96.7665 12.5533 96.6802 12.3313 96.6802 12.06V8.73C96.6802 8.45867 96.7665 8.23667 96.9392 8.064C97.1118 7.89133 97.3338 7.805 97.6052 7.805H102.045C102.317 7.805 102.539 7.89133 102.711 8.064C102.884 8.23667 102.97 8.45867 102.97 8.73V12.06C102.97 12.3313 102.884 12.5533 102.711 12.726C102.539 12.8987 102.317 12.985 102.045 12.985H97.6052ZM97.6422 35C97.3708 35 97.1488 34.9137 96.9762 34.741C96.8035 34.5683 96.7172 34.3463 96.7172 34.075V16.685C96.7172 16.4137 96.8035 16.1917 96.9762 16.019C97.1488 15.8463 97.3708 15.76 97.6422 15.76H102.008C102.28 15.76 102.502 15.8463 102.674 16.019C102.847 16.1917 102.933 16.4137 102.933 16.685V34.075C102.933 34.3217 102.847 34.5437 102.674 34.741C102.502 34.9137 102.28 35 102.008 35H97.6422ZM108.229 35C107.958 35 107.736 34.9137 107.563 34.741C107.39 34.5683 107.304 34.3463 107.304 34.075V16.685C107.304 16.4137 107.39 16.1917 107.563 16.019C107.736 15.8463 107.958 15.76 108.229 15.76H112.484C112.755 15.76 112.977 15.8463 113.15 16.019C113.347 16.1917 113.446 16.4137 113.446 16.685V18.091C114.112 17.277 114.963 16.6233 115.999 16.13C117.06 15.6367 118.256 15.39 119.588 15.39C121.759 15.39 123.522 16.13 124.879 17.61C126.236 19.0653 126.914 21.1127 126.914 23.752V34.075C126.914 34.3217 126.828 34.5437 126.655 34.741C126.482 34.9137 126.26 35 125.989 35H121.327C121.08 35 120.858 34.9137 120.661 34.741C120.488 34.5437 120.402 34.3217 120.402 34.075V23.974C120.402 22.8147 120.118 21.9267 119.551 21.31C118.984 20.6687 118.17 20.348 117.109 20.348C116.073 20.348 115.259 20.6687 114.667 21.31C114.075 21.9267 113.779 22.8147 113.779 23.974V34.075C113.779 34.3217 113.693 34.5437 113.52 34.741C113.347 34.9137 113.125 35 112.854 35H108.229ZM140.514 43.14C138.171 43.14 136.272 42.7577 134.816 41.993C133.361 41.2283 132.313 40.3527 131.671 39.366C131.055 38.3793 130.746 37.553 130.746 36.887C130.746 36.665 130.845 36.4677 131.042 36.295C131.24 36.1223 131.462 36.036 131.708 36.036H136.407C136.654 36.036 136.839 36.0853 136.962 36.184C137.11 36.3073 137.246 36.5047 137.369 36.776C137.616 37.3433 137.949 37.7873 138.368 38.108C138.788 38.4533 139.441 38.626 140.329 38.626C141.464 38.626 142.303 38.3423 142.845 37.775C143.388 37.2323 143.659 36.3073 143.659 35V32.521C142.401 33.9023 140.601 34.593 138.257 34.593C135.766 34.593 133.854 33.8653 132.522 32.41C131.215 30.93 130.5 28.7963 130.376 26.009L130.339 25.01C130.339 22.0253 131.005 19.682 132.337 17.98C133.669 16.2533 135.643 15.39 138.257 15.39C139.515 15.39 140.625 15.6367 141.587 16.13C142.549 16.5987 143.363 17.24 144.029 18.054V16.685C144.029 16.4137 144.116 16.1917 144.288 16.019C144.486 15.8463 144.708 15.76 144.954 15.76H149.209C149.481 15.76 149.703 15.8587 149.875 16.056C150.073 16.2287 150.171 16.4383 150.171 16.685V34.482C150.171 37.294 149.333 39.44 147.655 40.92C145.978 42.4 143.598 43.14 140.514 43.14ZM140.255 29.783C141.365 29.783 142.192 29.45 142.734 28.784C143.277 28.0933 143.585 27.23 143.659 26.194C143.684 26.0213 143.696 25.639 143.696 25.047C143.696 24.4797 143.684 24.1097 143.659 23.937C143.61 22.901 143.302 22.05 142.734 21.384C142.192 20.6933 141.365 20.348 140.255 20.348C139.096 20.348 138.257 20.6933 137.739 21.384C137.221 22.0747 136.938 23.0243 136.888 24.233L136.851 25.047C136.851 26.5023 137.098 27.6617 137.591 28.525C138.085 29.3637 138.973 29.783 140.255 29.783ZM155.455 35C155.183 35 154.961 34.9137 154.789 34.741C154.616 34.5683 154.53 34.3463 154.53 34.075V16.685C154.53 16.4137 154.616 16.1917 154.789 16.019C154.961 15.8463 155.183 15.76 155.455 15.76H159.488C159.759 15.76 159.981 15.8463 160.154 16.019C160.326 16.1917 160.413 16.4137 160.413 16.685V17.943C160.98 17.203 161.732 16.5987 162.67 16.13C163.632 15.6367 164.705 15.39 165.889 15.39C168.602 15.39 170.477 16.4507 171.513 18.572C172.105 17.6347 172.931 16.87 173.992 16.278C175.052 15.686 176.187 15.39 177.396 15.39C179.418 15.39 181.059 16.0807 182.317 17.462C183.599 18.8187 184.241 20.8537 184.241 23.567V34.075C184.241 34.3217 184.154 34.5437 183.982 34.741C183.809 34.9137 183.587 35 183.316 35H179.024C178.752 35 178.518 34.9137 178.321 34.741C178.148 34.5683 178.062 34.3463 178.062 34.075V23.826C178.062 22.5927 177.803 21.7047 177.285 21.162C176.791 20.6193 176.113 20.348 175.25 20.348C174.46 20.348 173.807 20.6317 173.289 21.199C172.771 21.7417 172.512 22.6173 172.512 23.826V34.075C172.512 34.3217 172.425 34.5437 172.253 34.741C172.08 34.9137 171.858 35 171.587 35H167.295C167.023 35 166.801 34.9137 166.629 34.741C166.456 34.5683 166.37 34.3463 166.37 34.075V23.826C166.37 22.6173 166.098 21.7417 165.556 21.199C165.038 20.6317 164.372 20.348 163.558 20.348C162.768 20.348 162.102 20.6317 161.56 21.199C161.042 21.7417 160.783 22.605 160.783 23.789V34.075C160.783 34.3217 160.696 34.5437 160.524 34.741C160.351 34.9137 160.129 35 159.858 35H155.455ZM194.194 35.37C192.887 35.37 191.691 35.1233 190.605 34.63C189.545 34.112 188.706 33.4213 188.089 32.558C187.497 31.67 187.201 30.6957 187.201 29.635C187.201 27.933 187.892 26.564 189.273 25.528C190.679 24.492 192.603 23.7767 195.045 23.382L199.67 22.679V22.161C199.67 21.2237 199.473 20.533 199.078 20.089C198.684 19.645 198.018 19.423 197.08 19.423C196.513 19.423 196.044 19.5217 195.674 19.719C195.304 19.9163 194.922 20.1877 194.527 20.533C194.182 20.829 193.923 21.0263 193.75 21.125C193.676 21.3223 193.541 21.421 193.343 21.421H189.31C189.064 21.421 188.854 21.347 188.681 21.199C188.533 21.0263 188.472 20.829 188.496 20.607C188.521 19.941 188.842 19.201 189.458 18.387C190.1 17.573 191.062 16.87 192.344 16.278C193.652 15.686 195.255 15.39 197.154 15.39C200.188 15.39 202.433 16.0683 203.888 17.425C205.344 18.757 206.071 20.5577 206.071 22.827V34.075C206.071 34.3217 205.985 34.5437 205.812 34.741C205.64 34.9137 205.418 35 205.146 35H200.854C200.608 35 200.386 34.9137 200.188 34.741C200.016 34.5437 199.929 34.3217 199.929 34.075V32.78C199.387 33.5447 198.622 34.1737 197.635 34.667C196.673 35.1357 195.526 35.37 194.194 35.37ZM195.933 31.152C197.068 31.152 197.981 30.782 198.671 30.042C199.387 29.302 199.744 28.2167 199.744 26.786V26.268L196.599 26.823C194.379 27.2177 193.269 27.9947 193.269 29.154C193.269 29.7707 193.528 30.264 194.046 30.634C194.564 30.9793 195.193 31.152 195.933 31.152ZM211.171 35C210.925 35 210.703 34.9137 210.505 34.741C210.333 34.5437 210.246 34.3217 210.246 34.075V9.655C210.246 9.38366 210.333 9.16167 210.505 8.989C210.703 8.81633 210.925 8.73 211.171 8.73H215.463C215.735 8.73 215.957 8.81633 216.129 8.989C216.302 9.16167 216.388 9.38366 216.388 9.655V22.05L221.531 16.389C221.581 16.3397 221.667 16.2533 221.79 16.13C221.938 16.0067 222.086 15.9203 222.234 15.871C222.382 15.797 222.555 15.76 222.752 15.76H227.71C227.932 15.76 228.117 15.8463 228.265 16.019C228.438 16.167 228.524 16.352 228.524 16.574C228.524 16.8453 228.426 17.055 228.228 17.203L221.568 24.381L229.153 33.594C229.351 33.7913 229.449 33.9763 229.449 34.149C229.449 34.3957 229.363 34.6053 229.19 34.778C229.042 34.926 228.845 35 228.598 35H223.529C223.209 35 222.962 34.9507 222.789 34.852C222.641 34.7533 222.456 34.593 222.234 34.371L216.388 27.341V34.075C216.388 34.3217 216.302 34.5437 216.129 34.741C215.957 34.9137 215.735 35 215.463 35H211.171ZM239.903 35.37C236.943 35.37 234.612 34.5683 232.91 32.965C231.208 31.3617 230.32 29.0307 230.246 25.972V24.677C230.345 21.7663 231.245 19.497 232.947 17.869C234.674 16.2163 236.98 15.39 239.866 15.39C241.963 15.39 243.726 15.8217 245.157 16.685C246.612 17.5237 247.698 18.683 248.413 20.163C249.153 21.643 249.523 23.345 249.523 25.269V26.157C249.523 26.4037 249.437 26.6257 249.264 26.823C249.091 26.9957 248.869 27.082 248.598 27.082H236.758V27.341C236.807 28.5003 237.091 29.4377 237.609 30.153C238.127 30.8683 238.879 31.226 239.866 31.226C240.483 31.226 240.988 31.1027 241.383 30.856C241.778 30.5847 242.135 30.264 242.456 29.894C242.678 29.6227 242.851 29.4623 242.974 29.413C243.122 29.339 243.344 29.302 243.64 29.302H248.228C248.45 29.302 248.635 29.376 248.783 29.524C248.956 29.6473 249.042 29.82 249.042 30.042C249.042 30.6833 248.672 31.4233 247.932 32.262C247.217 33.1007 246.168 33.8283 244.787 34.445C243.406 35.0617 241.778 35.37 239.903 35.37ZM243.011 23.419V23.345C243.011 22.1363 242.727 21.1867 242.16 20.496C241.617 19.7807 240.853 19.423 239.866 19.423C238.904 19.423 238.139 19.7807 237.572 20.496C237.029 21.1867 236.758 22.1363 236.758 23.345V23.419H243.011ZM253.917 35C253.645 35 253.423 34.9137 253.251 34.741C253.078 34.5683 252.992 34.3463 252.992 34.075V16.685C252.992 16.4137 253.078 16.1917 253.251 16.019C253.423 15.8463 253.645 15.76 253.917 15.76H258.172C258.443 15.76 258.665 15.8587 258.838 16.056C259.035 16.2287 259.134 16.4383 259.134 16.685V18.165C260.49 16.5617 262.316 15.76 264.61 15.76H266.238C266.509 15.76 266.731 15.8463 266.904 16.019C267.076 16.1917 267.163 16.4137 267.163 16.685V20.496C267.163 20.7427 267.076 20.9647 266.904 21.162C266.731 21.3347 266.509 21.421 266.238 21.421H262.649C261.637 21.421 260.848 21.7047 260.281 22.272C259.738 22.8147 259.467 23.5917 259.467 24.603V34.075C259.467 34.3463 259.368 34.5683 259.171 34.741C258.998 34.9137 258.776 35 258.505 35H253.917ZM277.711 35.37C275.713 35.37 274.036 35.0863 272.679 34.519C271.347 33.9517 270.361 33.2733 269.719 32.484C269.078 31.6947 268.757 30.9917 268.757 30.375C268.757 30.1283 268.844 29.931 269.016 29.783C269.214 29.6103 269.423 29.524 269.645 29.524H273.863C274.011 29.524 274.147 29.5857 274.27 29.709C274.566 29.9063 274.788 30.0667 274.936 30.19C275.479 30.5847 275.948 30.8807 276.342 31.078C276.762 31.2507 277.267 31.337 277.859 31.337C278.575 31.337 279.154 31.2013 279.598 30.93C280.067 30.634 280.301 30.227 280.301 29.709C280.301 29.2897 280.178 28.9567 279.931 28.71C279.709 28.4633 279.265 28.229 278.599 28.007C277.933 27.7603 276.922 27.5013 275.565 27.23C273.518 26.8107 271.939 26.1323 270.829 25.195C269.744 24.233 269.201 22.9503 269.201 21.347C269.201 20.3357 269.522 19.3737 270.163 18.461C270.805 17.5483 271.754 16.8083 273.012 16.241C274.295 15.6737 275.812 15.39 277.563 15.39C279.315 15.39 280.844 15.6613 282.151 16.204C283.459 16.7467 284.445 17.4127 285.111 18.202C285.802 18.9667 286.147 19.6697 286.147 20.311C286.147 20.533 286.061 20.7303 285.888 20.903C285.74 21.0757 285.555 21.162 285.333 21.162H281.485C281.288 21.162 281.103 21.1003 280.93 20.977C280.61 20.8043 280.326 20.6193 280.079 20.422C279.66 20.1013 279.265 19.8547 278.895 19.682C278.525 19.5093 278.069 19.423 277.526 19.423C276.885 19.423 276.367 19.571 275.972 19.867C275.602 20.163 275.417 20.5453 275.417 21.014C275.417 21.384 275.516 21.6923 275.713 21.939C275.935 22.1857 276.379 22.4323 277.045 22.679C277.736 22.901 278.747 23.1353 280.079 23.382C282.472 23.8013 284.211 24.5413 285.296 25.602C286.406 26.6627 286.961 27.9083 286.961 29.339C286.961 31.1643 286.147 32.632 284.519 33.742C282.891 34.8273 280.622 35.37 277.711 35.37Z" fill="#0E52A3"/>
<path d="M55.2188 21.25V23.0312C55.2188 23.2674 55.1249 23.494 54.9579 23.661C54.7909 23.828 54.5643 23.9219 54.3281 23.9219H51.6562V25.2578C51.6562 25.9956 51.0581 26.5937 50.3203 26.5937H6.67969C5.94192 26.5937 5.34375 25.9956 5.34375 25.2578V23.9219H2.67188C2.43567 23.9219 2.20913 23.828 2.04211 23.661C1.87508 23.494 1.78125 23.2674 1.78125 23.0312V21.25C1.78125 21.0738 1.83352 20.9015 1.93143 20.7551C2.02935 20.6086 2.16851 20.4944 2.33132 20.427L28.1594 10.6302C28.3775 10.5399 28.6225 10.5399 28.8406 10.6302L54.6687 20.427C54.8315 20.4944 54.9707 20.6086 55.0686 20.7551C55.1665 20.9015 55.2187 21.0738 55.2188 21.25V21.25ZM52.5469 55.0937H4.45312C2.97747 55.0937 1.78125 56.29 1.78125 57.7656V59.5469C1.78125 59.7831 1.87508 60.0096 2.04211 60.1766C2.20913 60.3437 2.43567 60.4375 2.67188 60.4375H54.3281C54.5643 60.4375 54.7909 60.3437 54.9579 60.1766C55.1249 60.0096 55.2188 59.7831 55.2188 59.5469V57.7656C55.2188 56.29 54.0225 55.0937 52.5469 55.0937ZM10.6875 28.375V49.75H6.67969C5.94192 49.75 5.34375 50.3482 5.34375 51.0859V53.3125H51.6562V51.0859C51.6562 50.3482 51.0581 49.75 50.3203 49.75H46.3125V28.375H39.1875V49.75H32.0625V28.375H24.9375V49.75H17.8125V28.375H10.6875Z" fill="#D0C096"/>
<line x1="71" y1="45.5" x2="272" y2="45.5" stroke="#D0C096"/>
<path d="M73.448 72C73.288 72 73.152 71.944 73.04 71.832C72.928 71.72 72.872 71.584 72.872 71.424V55.776C72.872 55.6 72.928 55.464 73.04 55.368C73.152 55.256 73.288 55.2 73.448 55.2H75.704C75.88 55.2 76.016 55.256 76.112 55.368C76.224 55.464 76.28 55.6 76.28 55.776V71.424C76.28 71.584 76.224 71.72 76.112 71.832C76.016 71.944 75.88 72 75.704 72H73.448ZM79.0119 72C78.8839 72 78.7639 71.952 78.6519 71.856C78.5559 71.76 78.5079 71.64 78.5079 71.496L78.5559 71.28L84.3399 55.8C84.4519 55.4 84.7319 55.2 85.1799 55.2H87.7959C88.2119 55.2 88.4919 55.4 88.6359 55.8L94.4199 71.28C94.4359 71.328 94.4439 71.4 94.4439 71.496C94.4439 71.64 94.3959 71.76 94.2999 71.856C94.2039 71.952 94.0919 72 93.9639 72H91.8759C91.6679 72 91.5079 71.952 91.3959 71.856C91.2839 71.76 91.2119 71.656 91.1799 71.544L90.0519 68.616H82.9239L81.7959 71.544C81.6679 71.848 81.4359 72 81.0999 72H79.0119ZM89.2119 65.856L86.4759 58.44L83.7639 65.856H89.2119ZM102.282 72.24C100.858 72.24 99.6341 72.024 98.6101 71.592C97.5861 71.16 96.8101 70.592 96.2821 69.888C95.7541 69.184 95.4741 68.424 95.4421 67.608C95.4421 67.464 95.4901 67.344 95.5861 67.248C95.6821 67.152 95.8021 67.104 95.9461 67.104H98.0821C98.2741 67.104 98.4181 67.144 98.5141 67.224C98.6261 67.288 98.7301 67.4 98.8261 67.56C98.9861 68.104 99.3541 68.56 99.9301 68.928C100.506 69.296 101.29 69.48 102.282 69.48C103.418 69.48 104.274 69.296 104.85 68.928C105.426 68.544 105.714 68.016 105.714 67.344C105.714 66.896 105.562 66.528 105.258 66.24C104.97 65.952 104.53 65.704 103.938 65.496C103.362 65.288 102.498 65.032 101.346 64.728C99.4581 64.28 98.0741 63.688 97.1941 62.952C96.3301 62.2 95.8981 61.136 95.8981 59.76C95.8981 58.832 96.1461 58.008 96.6421 57.288C97.1541 56.568 97.8821 56 98.8261 55.584C99.7861 55.168 100.898 54.96 102.162 54.96C103.474 54.96 104.61 55.192 105.57 55.656C106.53 56.12 107.258 56.704 107.754 57.408C108.266 58.096 108.538 58.784 108.57 59.472C108.57 59.616 108.522 59.736 108.426 59.832C108.33 59.928 108.21 59.976 108.066 59.976H105.834C105.498 59.976 105.266 59.824 105.138 59.52C105.042 59.008 104.722 58.584 104.178 58.248C103.634 57.896 102.962 57.72 102.162 57.72C101.266 57.72 100.562 57.888 100.05 58.224C99.5381 58.56 99.2821 59.048 99.2821 59.688C99.2821 60.136 99.4101 60.504 99.6661 60.792C99.9221 61.08 100.322 61.336 100.866 61.56C101.426 61.784 102.226 62.032 103.266 62.304C104.674 62.624 105.794 62.984 106.626 63.384C107.474 63.784 108.098 64.288 108.498 64.896C108.898 65.504 109.098 66.28 109.098 67.224C109.098 68.248 108.81 69.144 108.234 69.912C107.674 70.664 106.874 71.24 105.834 71.64C104.81 72.04 103.626 72.24 102.282 72.24ZM115.668 72C115.54 72 115.42 71.952 115.308 71.856C115.212 71.76 115.164 71.64 115.164 71.496L115.212 71.28L120.996 55.8C121.108 55.4 121.388 55.2 121.836 55.2H124.452C124.868 55.2 125.148 55.4 125.292 55.8L131.076 71.28C131.092 71.328 131.1 71.4 131.1 71.496C131.1 71.64 131.052 71.76 130.956 71.856C130.86 71.952 130.748 72 130.62 72H128.532C128.324 72 128.164 71.952 128.052 71.856C127.94 71.76 127.868 71.656 127.836 71.544L126.708 68.616H119.58L118.452 71.544C118.324 71.848 118.092 72 117.756 72H115.668ZM125.868 65.856L123.132 58.44L120.42 65.856H125.868ZM138.312 72.24C136.552 72.24 135.144 71.752 134.088 70.776C133.048 69.8 132.496 68.448 132.432 66.72L132.408 65.76L132.432 64.8C132.496 63.072 133.048 61.72 134.088 60.744C135.144 59.768 136.552 59.28 138.312 59.28C139.56 59.28 140.616 59.504 141.48 59.952C142.36 60.4 143.008 60.952 143.424 61.608C143.856 62.248 144.088 62.856 144.12 63.432C144.136 63.592 144.08 63.728 143.952 63.84C143.84 63.952 143.704 64.008 143.544 64.008H141.432C141.272 64.008 141.144 63.976 141.048 63.912C140.968 63.832 140.888 63.704 140.808 63.528C140.568 62.904 140.248 62.456 139.848 62.184C139.464 61.912 138.968 61.776 138.36 61.776C137.544 61.776 136.904 62.04 136.44 62.568C135.976 63.08 135.728 63.864 135.696 64.92L135.672 65.808L135.696 66.6C135.76 68.696 136.648 69.744 138.36 69.744C138.984 69.744 139.488 69.608 139.872 69.336C140.256 69.064 140.568 68.616 140.808 67.992C140.888 67.816 140.968 67.696 141.048 67.632C141.144 67.552 141.272 67.512 141.432 67.512H143.544C143.704 67.512 143.84 67.568 143.952 67.68C144.08 67.792 144.136 67.928 144.12 68.088C144.088 68.648 143.864 69.248 143.448 69.888C143.032 70.528 142.392 71.08 141.528 71.544C140.664 72.008 139.592 72.24 138.312 72.24ZM150.247 72.24C149.431 72.24 148.679 72.08 147.991 71.76C147.319 71.424 146.783 70.976 146.383 70.416C145.999 69.856 145.807 69.24 145.807 68.568C145.807 67.48 146.247 66.6 147.127 65.928C148.007 65.256 149.215 64.8 150.751 64.56L154.039 64.08V63.576C154.039 62.872 153.863 62.344 153.511 61.992C153.159 61.64 152.591 61.464 151.807 61.464C151.279 61.464 150.847 61.568 150.511 61.776C150.191 61.968 149.935 62.16 149.743 62.352C149.551 62.56 149.423 62.696 149.359 62.76C149.295 62.952 149.175 63.048 148.999 63.048H147.151C147.007 63.048 146.879 63 146.767 62.904C146.671 62.808 146.623 62.68 146.623 62.52C146.639 62.12 146.831 61.664 147.199 61.152C147.583 60.64 148.167 60.2 148.951 59.832C149.735 59.464 150.695 59.28 151.831 59.28C153.719 59.28 155.095 59.704 155.959 60.552C156.823 61.4 157.255 62.512 157.255 63.888V71.424C157.255 71.584 157.199 71.72 157.087 71.832C156.991 71.944 156.855 72 156.679 72H154.735C154.575 72 154.439 71.944 154.327 71.832C154.215 71.72 154.159 71.584 154.159 71.424V70.488C153.807 71 153.303 71.424 152.647 71.76C152.007 72.08 151.207 72.24 150.247 72.24ZM151.063 69.96C151.943 69.96 152.663 69.672 153.223 69.096C153.783 68.52 154.063 67.68 154.063 66.576V66.072L151.663 66.456C150.735 66.6 150.031 66.832 149.551 67.152C149.087 67.472 148.855 67.864 148.855 68.328C148.855 68.84 149.071 69.24 149.503 69.528C149.935 69.816 150.455 69.96 151.063 69.96ZM164.966 72.24C163.35 72.24 162.11 71.72 161.246 70.68C160.382 69.64 159.918 68.256 159.854 66.528L159.83 65.736L159.854 64.968C159.902 63.288 160.358 61.92 161.222 60.864C162.102 59.808 163.35 59.28 164.966 59.28C166.518 59.28 167.75 59.808 168.662 60.864V55.536C168.662 55.36 168.718 55.224 168.83 55.128C168.942 55.016 169.078 54.96 169.238 54.96H171.278C171.454 54.96 171.59 55.016 171.686 55.128C171.798 55.224 171.854 55.36 171.854 55.536V71.424C171.854 71.584 171.798 71.72 171.686 71.832C171.59 71.944 171.454 72 171.278 72H169.382C169.222 72 169.086 71.944 168.974 71.832C168.862 71.72 168.806 71.584 168.806 71.424V70.536C167.894 71.672 166.614 72.24 164.966 72.24ZM165.854 69.672C166.782 69.672 167.47 69.376 167.918 68.784C168.366 68.192 168.614 67.464 168.662 66.6C168.678 66.408 168.686 66.096 168.686 65.664C168.686 65.248 168.678 64.944 168.662 64.752C168.63 63.952 168.374 63.272 167.894 62.712C167.43 62.136 166.75 61.848 165.854 61.848C164.126 61.848 163.206 62.912 163.094 65.04L163.07 65.76L163.094 66.48C163.206 68.608 164.126 69.672 165.854 69.672ZM180.429 72.24C178.653 72.24 177.237 71.728 176.181 70.704C175.141 69.664 174.589 68.208 174.525 66.336L174.501 65.736L174.525 65.136C174.605 63.312 175.165 61.88 176.205 60.84C177.261 59.8 178.669 59.28 180.429 59.28C182.317 59.28 183.773 59.856 184.797 61.008C185.837 62.16 186.357 63.696 186.357 65.616V66.12C186.357 66.28 186.301 66.416 186.189 66.528C186.077 66.64 185.933 66.696 185.757 66.696H177.789V66.888C177.821 67.768 178.061 68.512 178.509 69.12C178.973 69.712 179.605 70.008 180.405 70.008C181.349 70.008 182.109 69.64 182.685 68.904C182.829 68.728 182.941 68.616 183.021 68.568C183.117 68.52 183.253 68.496 183.429 68.496H185.493C185.637 68.496 185.757 68.544 185.853 68.64C185.965 68.72 186.021 68.824 186.021 68.952C186.021 69.336 185.789 69.792 185.325 70.32C184.877 70.832 184.229 71.28 183.381 71.664C182.533 72.048 181.549 72.24 180.429 72.24ZM183.093 64.68V64.608C183.093 63.664 182.853 62.904 182.373 62.328C181.909 61.752 181.261 61.464 180.429 61.464C179.597 61.464 178.949 61.752 178.485 62.328C178.021 62.904 177.789 63.664 177.789 64.608V64.68H183.093ZM189.48 72C189.32 72 189.184 71.944 189.072 71.832C188.96 71.72 188.904 71.584 188.904 71.424V60.096C188.904 59.936 188.96 59.8 189.072 59.688C189.184 59.576 189.32 59.52 189.48 59.52H191.352C191.512 59.52 191.648 59.576 191.76 59.688C191.872 59.8 191.928 59.936 191.928 60.096V60.912C192.76 59.824 193.92 59.28 195.408 59.28C197.184 59.28 198.424 59.992 199.128 61.416C199.512 60.776 200.056 60.264 200.76 59.88C201.464 59.48 202.224 59.28 203.04 59.28C204.352 59.28 205.424 59.728 206.256 60.624C207.088 61.52 207.504 62.824 207.504 64.536V71.424C207.504 71.584 207.448 71.72 207.336 71.832C207.24 71.944 207.104 72 206.928 72H204.96C204.8 72 204.664 71.944 204.552 71.832C204.44 71.72 204.384 71.584 204.384 71.424V64.728C204.384 63.72 204.168 62.992 203.736 62.544C203.32 62.08 202.76 61.848 202.056 61.848C201.432 61.848 200.896 62.08 200.448 62.544C200.016 63.008 199.8 63.736 199.8 64.728V71.424C199.8 71.584 199.744 71.72 199.632 71.832C199.52 71.944 199.384 72 199.224 72H197.256C197.096 72 196.96 71.944 196.848 71.832C196.736 71.72 196.68 71.584 196.68 71.424V64.728C196.68 63.72 196.456 62.992 196.008 62.544C195.576 62.08 195.024 61.848 194.352 61.848C193.712 61.848 193.168 62.08 192.72 62.544C192.288 63.008 192.072 63.736 192.072 64.728V71.424C192.072 71.584 192.016 71.72 191.904 71.832C191.792 71.944 191.656 72 191.496 72H189.48ZM212.418 76.56C212.29 76.56 212.178 76.512 212.082 76.416C211.986 76.32 211.938 76.208 211.938 76.08C211.938 75.936 211.97 75.808 212.034 75.696L213.906 71.256L209.298 60.384C209.234 60.24 209.202 60.128 209.202 60.048C209.218 59.904 209.274 59.784 209.37 59.688C209.466 59.576 209.586 59.52 209.73 59.52H211.674C211.978 59.52 212.194 59.672 212.322 59.976L215.514 67.824L218.802 59.976C218.93 59.672 219.146 59.52 219.45 59.52H221.37C221.498 59.52 221.61 59.568 221.706 59.664C221.818 59.76 221.874 59.872 221.874 60C221.874 60.112 221.842 60.24 221.778 60.384L214.986 76.104C214.842 76.408 214.618 76.56 214.314 76.56H212.418Z" fill="#0E52A3"/>
</svg>
