<svg width="168" height="158" viewBox="0 0 168 158" fill="none" xmlns="http://www.w3.org/2000/svg">
<path d="M116.28 69.5234L112.436 74.7609C111.915 75.4707 111.159 75.9722 110.302 76.1756C109.445 76.3789 108.544 76.2709 107.759 75.8709V75.8709C107.181 75.5763 106.691 75.1357 106.337 74.5927C105.983 74.0498 105.778 73.4236 105.741 72.7766C105.705 72.1295 105.839 71.4843 106.13 70.9051C106.421 70.326 106.858 69.8332 107.399 69.4758L112.3 66.2382L126.314 52.2327L127.871 47.2184H138.425L132.889 59.149L116.28 69.5234Z" fill="#FFB8B8"/>
<path d="M2.21843 69.0115C1.73694 69.012 1.27535 69.202 0.934893 69.5397C0.594434 69.8774 0.402913 70.3353 0.402344 70.8129V156.199C0.402913 156.676 0.594434 157.134 0.934893 157.472C1.27535 157.809 1.73694 157.999 2.21843 158H118.448C118.93 157.999 119.391 157.809 119.732 157.472C120.072 157.134 120.264 156.676 120.264 156.199V70.8129C120.264 70.3353 120.072 69.8774 119.732 69.5397C119.391 69.202 118.93 69.012 118.448 69.0115H2.21843Z" fill="#E6E6E6"/>
<path d="M5.85059 152.552H114.816V74.4597H5.85059V152.552Z" fill="white"/>
<path d="M99.743 96.2529H33.6373C33.0111 96.2529 32.4106 96.5399 31.9679 97.0508C31.5251 97.5617 31.2764 98.2546 31.2764 98.9771C31.2764 99.6995 31.5251 100.392 31.9679 100.903C32.4106 101.414 33.0111 101.701 33.6373 101.701H99.743C100.369 101.701 100.97 101.414 101.412 100.903C101.855 100.392 102.104 99.6995 102.104 98.9771C102.104 98.2546 101.855 97.5617 101.412 97.0508C100.97 96.5399 100.369 96.2529 99.743 96.2529Z" fill="#E6E6E6"/>
<path d="M33.6373 110.782C33.0111 110.782 32.4106 110.973 31.9679 111.314C31.5251 111.654 31.2764 112.116 31.2764 112.598C31.2764 113.079 31.5251 113.541 31.9679 113.882C32.4106 114.222 33.0111 114.414 33.6373 114.414H99.743C100.369 114.414 100.97 114.222 101.412 113.882C101.855 113.541 102.104 113.079 102.104 112.598C102.104 112.116 101.855 111.654 101.412 111.314C100.97 110.973 100.369 110.782 99.743 110.782H33.6373Z" fill="#E6E6E6"/>
<path d="M33.6344 125.31C33.0088 125.311 32.409 125.503 31.9668 125.843C31.5247 126.184 31.2764 126.645 31.2764 127.126C31.2764 127.608 31.5247 128.069 31.9668 128.41C32.409 128.75 33.0088 128.942 33.6344 128.942H99.7459C100.372 128.942 100.971 128.75 101.413 128.41C101.856 128.069 102.104 127.608 102.104 127.126C102.104 126.645 101.856 126.184 101.413 125.843C100.971 125.503 100.372 125.311 99.7459 125.31H33.6344Z" fill="#E6E6E6"/>
<path d="M21.2876 101.701C22.7921 101.701 24.0118 100.482 24.0118 98.9771C24.0118 97.4726 22.7921 96.2529 21.2876 96.2529C19.7831 96.2529 18.5635 97.4726 18.5635 98.9771C18.5635 100.482 19.7831 101.701 21.2876 101.701Z" fill="#00BF2F"/>
<path d="M21.2876 116.23C22.7921 116.23 24.0118 115.01 24.0118 113.506C24.0118 112.001 22.7921 110.782 21.2876 110.782C19.7831 110.782 18.5635 112.001 18.5635 113.506C18.5635 115.01 19.7831 116.23 21.2876 116.23Z" fill="#E6E6E6"/>
<path d="M21.2876 130.759C22.7921 130.759 24.0118 129.539 24.0118 128.034C24.0118 126.53 22.7921 125.31 21.2876 125.31C19.7831 125.31 18.5635 126.53 18.5635 128.034C18.5635 129.539 19.7831 130.759 21.2876 130.759Z" fill="#E6E6E6"/>
<path d="M73.0465 98.9769C73.0465 99.6993 72.7999 100.392 72.3609 100.903C71.922 101.414 71.3267 101.701 70.7059 101.701H33.7011C33.123 101.711 32.5612 101.477 32.1194 101.043C31.6775 100.609 31.3853 100.004 31.2965 99.3389C31.2529 98.9542 31.2803 98.563 31.3769 98.1915C31.4734 97.8201 31.637 97.4768 31.8566 97.1848C32.0762 96.8927 32.3468 96.6585 32.6503 96.4978C32.9538 96.3371 33.2834 96.2536 33.6168 96.2529H70.7059C71.0133 96.2529 71.3177 96.3234 71.6016 96.4603C71.8856 96.5972 72.1436 96.7978 72.3609 97.0508C72.5783 97.3037 72.7507 97.604 72.8683 97.9345C72.986 98.265 73.0465 98.6192 73.0465 98.9769V98.9769Z" fill="#00BF2F"/>
<path d="M165.667 143.054L160.824 145.287L153.465 131.398C148.922 124.485 145.956 116.201 143.874 107.149L151.484 107.665C156.015 114.088 159.372 120.527 160.454 127L165.667 143.054Z" fill="#FFB8B8"/>
<path d="M152.954 110.782H143.874V94.0042L151.171 92.6207L152.954 110.782Z" fill="#2F2E41"/>
<path d="M140.748 49.0345C136.392 48.1245 131.935 47.9405 127.528 48.4888L130.113 34.3669C130.36 33.0133 130.989 31.7787 131.909 30.8364C132.83 29.8941 133.997 29.2914 135.246 29.1129V29.1129C136.152 28.9835 137.073 29.0814 137.94 29.3991C138.806 29.7169 139.596 30.2462 140.248 30.9471C140.901 31.6481 141.399 32.5023 141.706 33.4453C142.013 34.3883 142.121 35.3954 142.021 36.3906L140.748 49.0345Z" fill="#00BF2F"/>
<path d="M133.885 19.977C138.399 19.977 142.058 16.7246 142.058 12.7126C142.058 8.70061 138.399 5.44824 133.885 5.44824C129.372 5.44824 125.713 8.70061 125.713 12.7126C125.713 16.7246 129.372 19.977 133.885 19.977Z" fill="#FFB8B8"/>
<path d="M145.689 21.6433L135.649 29.0575L132.977 15.83L140.507 12.7126C140.812 16.1805 142.612 19.1323 145.689 21.6433Z" fill="#FFB8B8"/>
<path d="M142.058 11.6175C141.483 10.4189 140.764 11.2507 140.125 12.7126L139.209 9.00142L138.109 8.63029L137.376 5.66134C134.014 4.84832 131.315 6.54918 127.847 8.43876L126.525 11.6176C125.997 10.5261 125.719 9.32793 125.713 8.11261C125.707 6.8973 125.971 5.6962 126.488 4.599C127.004 3.5018 127.758 2.53685 128.694 1.7762C129.63 1.01555 130.724 0.478861 131.894 0.206193C132.47 0.0752534 133.057 0.00628903 133.647 0.000457281V0.000457281C134.769 -0.0113791 135.882 0.20668 136.919 0.641522C137.956 1.07636 138.895 1.71901 139.681 2.53082C140.466 3.34263 141.081 4.30684 141.489 5.36548C141.896 6.42412 142.089 7.55532 142.054 8.69107L142.058 11.6175Z" fill="#2F2E41"/>
<path d="M165.997 149.235L150.377 154.315C149.848 154.428 149.295 154.357 148.812 154.114C148.328 153.871 147.942 153.471 147.718 152.979V152.979C147.487 152.472 147.443 151.899 147.594 151.362C147.744 150.825 148.08 150.358 148.541 150.044C151.622 147.941 154.077 145.697 155.202 143.155C156.243 138.939 157.419 138.929 158.697 142.075C162.227 144.157 161.657 142.489 163.855 139.899L167.244 146.296C167.387 146.566 167.468 146.864 167.481 147.169C167.494 147.475 167.439 147.779 167.32 148.06C167.2 148.342 167.02 148.593 166.791 148.796C166.562 148.999 166.291 149.149 165.997 149.235V149.235Z" fill="#2F2E41"/>
<path d="M127.586 154.368L122.08 151.993L124.054 138.09L127.93 110.782L138.425 112.138C138.199 121.621 135.809 130.933 131.433 139.381L127.586 154.368Z" fill="#FFB8B8"/>
<path d="M145.353 114.414L127.528 110.93L132.237 86.5438L131.396 79.9081H154.77C153.917 88.499 149.85 101.183 145.353 114.414Z" fill="#2F2E41"/>
<path d="M155.77 81.7242C147.27 79.5569 138.91 79.2502 130.757 81.7242C129.231 65.8909 128.812 50.7928 130.146 36.8612C130.464 33.4876 132.082 30.3741 134.653 28.1888L144.34 19.9771L151.532 23.6002C152.461 24.068 153.245 24.7825 153.8 25.6665C154.355 26.5505 154.66 27.5705 154.681 28.6162C156.251 49.6794 157.455 69.7233 155.77 81.7242Z" fill="#00BF2F"/>
<path d="M165.763 78.8932L167.322 84.0065C167.484 84.5385 167.524 85.0967 167.439 85.6442C167.354 86.1917 167.145 86.716 166.828 87.1825C166.51 87.6489 166.09 88.0468 165.596 88.3499C165.102 88.653 164.545 88.8543 163.962 88.9406V88.9406C163.321 89.0354 162.666 88.9889 162.048 88.8047C161.429 88.6206 160.866 88.3038 160.401 87.8797C159.936 87.4556 159.584 86.9358 159.371 86.3616C159.158 85.7874 159.092 85.1746 159.176 84.572L159.877 79.5617L156.132 54.1593L151.138 44.132L161.126 39.954L165.228 52.4881L165.763 78.8932Z" fill="#FFB8B8"/>
<path d="M126.153 157.931L109.24 154.244C108.699 154.069 108.238 153.726 107.934 153.273C107.631 152.82 107.502 152.284 107.569 151.753V151.753C107.639 151.205 107.914 150.698 108.345 150.321C108.776 149.943 109.336 149.72 109.926 149.689C113.867 149.485 117.319 148.841 119.733 147.264C122.99 144.228 124.058 144.822 123.486 148.138C125.534 151.705 125.934 150.002 129.345 148.933L128.895 156.081C128.876 156.383 128.786 156.677 128.63 156.942C128.474 157.207 128.257 157.437 127.994 157.614C127.732 157.791 127.43 157.911 127.112 157.966C126.793 158.021 126.466 158.009 126.153 157.931Z" fill="#2F2E41"/>
<path d="M162.034 41.55C158.064 41.8852 153.734 44.2414 149.292 47.2184L145.885 33.5152C145.559 32.2017 145.642 30.8165 146.123 29.5539C146.604 28.2913 147.459 27.2148 148.568 26.4755V26.4755C149.372 25.9393 150.285 25.5973 151.237 25.4754C152.189 25.3535 153.156 25.4547 154.064 25.7716C154.972 26.0885 155.798 26.6126 156.48 27.3045C157.161 27.9964 157.681 28.8379 157.998 29.7654L162.034 41.55Z" fill="#00BF2F"/>
<path d="M64.9916 82.471C75.4976 82.471 84.0145 73.9542 84.0145 63.4482C84.0145 52.9421 75.4976 44.4253 64.9916 44.4253C54.4856 44.4253 45.9688 52.9421 45.9688 63.4482C45.9688 73.9542 54.4856 82.471 64.9916 82.471Z" fill="#00BF2F"/>
<path d="M61.6532 72.6719L56.5282 67.5524C56.3622 67.3853 56.2691 67.1593 56.2695 66.9239C56.2699 66.6885 56.3637 66.4628 56.5304 66.2964C56.697 66.1299 56.9229 66.0362 57.1586 66.0358C57.3943 66.0354 57.6205 66.1283 57.7877 66.2942L61.5679 70.0705L73.6309 56.3291C73.7867 56.152 74.0065 56.044 74.242 56.0287C74.4775 56.0134 74.7095 56.0922 74.8869 56.2476C75.0643 56.403 75.1727 56.6224 75.1883 56.8577C75.2039 57.0929 75.1254 57.3247 74.97 57.5021L61.6532 72.6719Z" fill="white"/>
</svg>
