<?xml version="1.0" standalone="no"?>
<!DOCTYPE svg PUBLIC "-//W3C//DTD SVG 1.1//EN" "http://www.w3.org/Graphics/SVG/1.1/DTD/svg11.dtd" >
<svg xmlns="http://www.w3.org/2000/svg">
<metadata>Generated by IcoMoon</metadata>
<defs>
<font id="icomoon" horiz-adv-x="1024">
<font-face units-per-em="1024" ascent="960" descent="-64" />
<missing-glyph horiz-adv-x="1024" />
<glyph unicode="&#x20;" horiz-adv-x="512" d="" />
<glyph unicode="&#xe900;" glyph-name="add" d="M544 480v224h-64v-224h-224v-64h224v-224h64v224h224v64h-224z" />
<glyph unicode="&#xe901;" glyph-name="alarm" horiz-adv-x="1075" d="M972.749 107.203l-34.801 51.2c-4.972 7.997-8.284 17.597-8.284 25.6v340.797c0 97.6-44.744 187.2-124.288 256-62.971 59.2-142.515 94.4-230.344 102.4v33.6c0 25.6-18.227 43.2-44.744 43.2-26.512 0-44.741-17.6-44.741-43.2v-33.6h-4.971c-197.2-20.8-348-179.2-348-363.2v-332.803c0-17.597-1.657-17.597-6.628-27.197l-33.143-54.4c-13.257-17.597-13.257-43.197 0-59.203 8.286-17.597 31.486-25.6 48.057-25.6h344.686v-43.197c0-23.997 19.886-43.197 43.087-43.197 24.858 0 44.744 19.2 44.744 43.197v43.197h344.684c21.545 0 39.772 8.003 53.028 25.6 9.943 22.405 9.943 43.203 1.659 60.805zM193.891 107.203l8.286 12.8c8.286 17.597 18.228 38.4 18.228 59.197v340.8c0 140.8 114.343 260.8 270.114 276.8 92.802 8 185.602-17.6 256.857-76.8 61.312-51.2 92.8-120 92.8-196.8v-340.8c0-25.6 8.284-51.2 21.545-72.003l4.972-4.797h-672.802v1.603z" />
<glyph unicode="&#xe902;" glyph-name="active-state" horiz-adv-x="128" d="M0 960l128-114.627v-817.671l-128-91.702v1024z" />
<glyph unicode="&#xe903;" glyph-name="calendar" horiz-adv-x="983" d="M798.72 809.584h-122.88v61.44h-61.44v-61.44h-245.76v61.44h-61.44v-61.44h-122.88c-33.792 0-61.44-27.648-61.44-61.44v-614.401c0-33.792 27.648-61.44 61.44-61.44h614.4c33.792 0 61.44 27.648 61.44 61.44v614.401c0 33.792-27.648 61.44-61.44 61.44zM798.72 133.743h-614.4v430.081h614.4v-430.081zM798.72 625.264h-614.4v122.88h122.88v-61.44h61.44v61.44h245.76v-61.44h61.44v61.44h122.88v-122.88z" />
<glyph unicode="&#xe904;" glyph-name="cancel" d="M550.37 448.154l288.152 288.435c5.088 5.109 7.936 12.024 7.93 19.231 0 7.207-2.861 14.118-7.955 19.22-10.189 10.138-28.134 10.189-38.426-0.051l-288.075-288.435-288.179 288.512c-10.24 10.112-28.186 10.061-38.374-0.051-2.529-2.518-4.531-5.516-5.889-8.817s-2.045-6.84-2.021-10.409c0-7.27 2.816-14.080 7.91-19.123l288.153-288.486-288.127-288.512c-5.085-5.114-7.932-12.038-7.918-19.251 0.015-7.219 2.89-14.131 7.995-19.226 4.941-4.89 11.93-7.706 19.149-7.706h0.154c7.245 0.026 14.234 2.867 19.072 7.808l288.076 288.435 288.177-288.512c5.094-5.069 11.904-7.885 19.123-7.885 3.571-0.013 7.11 0.685 10.406 2.048 3.302 1.363 6.298 3.36 8.826 5.888 2.522 2.522 4.525 5.517 5.888 8.819 1.357 3.302 2.054 6.835 2.042 10.406 0 7.245-2.816 14.080-7.936 19.123l-288.152 288.538z" />
<glyph unicode="&#xe905;" glyph-name="checkbox-active" d="M800 864h-576c-33.936-0.037-66.472-13.535-90.469-37.531s-37.494-56.532-37.531-90.469v-576c0.037-33.937 13.535-66.47 37.531-90.47 23.997-23.996 56.532-37.491 90.469-37.53h576c33.937 0.038 66.47 13.534 90.47 37.53 23.996 24 37.491 56.533 37.53 90.47v576c-0.038 33.936-13.534 66.472-37.53 90.469-24 23.997-56.533 37.494-90.47 37.531v0zM728.499 587.42l-268.8-319.998c-2.948-3.516-6.618-6.353-10.756-8.32-4.143-1.971-8.657-3.029-13.244-3.102h-0.538c-4.489 0-8.922 0.947-13.018 2.773s-7.764 4.493-10.763 7.825l-115.2 128c-2.926 3.106-5.201 6.763-6.694 10.756s-2.171 8.247-1.996 12.51c0.175 4.262 1.2 8.444 3.014 12.305 1.815 3.857 4.383 7.317 7.553 10.167 3.17 2.854 6.879 5.043 10.907 6.443s8.297 1.98 12.553 1.707c4.256-0.273 8.414-1.395 12.231-3.298 3.816-1.907 7.213-4.553 9.992-7.787l90.581-100.642 245.18 291.82c5.5 6.359 13.278 10.298 21.662 10.965 8.38 0.668 16.687-1.989 23.121-7.397 6.438-5.407 10.487-13.13 11.277-21.5s-1.745-16.714-7.061-23.228v0z" />
<glyph unicode="&#xe906;" glyph-name="checkbox-disabled" d="M800 832h-576c-53.019 0-96-42.981-96-96v-576c0-53.018 42.981-96 96-96h576c53.018 0 96 42.982 96 96v576c0 53.019-42.982 96-96 96z" />
<glyph unicode="&#xe907;" glyph-name="checkbox-inactive" d="M832 832h-640c-16.974 0-33.253-6.743-45.255-18.745s-18.745-28.281-18.745-45.255v-640c0-16.973 6.743-33.254 18.745-45.257s28.281-18.743 45.255-18.743h640c16.973 0 33.254 6.741 45.257 18.743s18.743 28.284 18.743 45.257v640c0 16.974-6.741 33.253-18.743 45.255s-28.284 18.745-45.257 18.745v0zM192 128v640h640v-640h-640z" />
<glyph unicode="&#xe908;" glyph-name="chevron-down" d="M512 256l-320 320.001 44.8 44.8 275.2-275.201 275.2 275.201 44.8-44.8-320-320.001z" />
<glyph unicode="&#xe909;" glyph-name="chevron-left" d="M319.992 448l320-320 44.8 44.8-275.2 275.2 275.2 275.2-44.8 44.8-320-320z" />
<glyph unicode="&#xe90a;" glyph-name="chevron-right" d="M704.009 448l-320-320-44.8 44.8 275.2 275.2-275.2 275.2 44.8 44.8 320-320z" />
<glyph unicode="&#xe90b;" glyph-name="ic_batches" d="M69.845 890.154c-38.613 0-69.845-31.232-69.845-69.802v-744.706c0-38.568 31.232-69.8 69.845-69.8h884.309c38.614 0 69.846 31.232 69.846 69.8v744.706c0 38.57-31.232 69.802-69.846 69.802h-884.309zM93.099 797.098h837.801v-698.199h-116.308v46.508h-209.492v-46.508h-512.001v698.199zM512 610.901c-18.52 0-36.278-7.357-49.373-20.451s-20.451-30.855-20.451-49.373c0-18.518 7.356-36.278 20.451-49.371 13.096-13.098 30.853-20.452 49.373-20.452s36.278 7.354 49.371 20.452c13.098 13.092 20.452 30.853 20.452 49.371s-7.354 36.279-20.452 49.373c-13.093 13.095-30.85 20.451-49.371 20.451zM325.845 529.408c-28.928 0-52.437-23.467-52.437-52.308 0.389-13.633 6.077-26.577 15.857-36.082s22.879-14.82 36.516-14.82c13.637 0 26.737 5.315 36.516 14.82s15.468 22.449 15.857 36.082c0 28.884-23.424 52.308-52.31 52.308zM698.154 529.408c-6.996 0.2-13.964-1.006-20.489-3.546-6.521-2.54-12.47-6.363-17.492-11.242-5.018-4.879-9.011-10.715-11.734-17.164-2.728-6.448-4.129-13.379-4.129-20.379s1.401-13.931 4.129-20.378c2.723-6.451 6.717-12.288 11.734-17.166 5.022-4.878 10.971-8.699 17.492-11.241 6.526-2.541 13.494-3.747 20.489-3.547 13.619 0.391 26.554 6.074 36.049 15.844 9.495 9.775 14.811 22.863 14.811 36.487s-5.315 26.715-14.811 36.487c-9.495 9.771-22.43 15.455-36.049 15.845zM512 424.746c-50.304 0-102.955-17.11-134.315-42.924-16.784 5.246-34.257 7.945-51.84 8.024-56.064 0-116.437-29.654-116.437-66.518v-38.228h605.184v38.228c0 36.864-60.374 66.518-116.438 66.518-17.492 0-35.412-2.904-51.838-8.024-31.362 25.814-84.010 42.924-134.316 42.924z" />
<glyph unicode="&#xe90c;" glyph-name="chevron-up" d="M512 639.999l-320-319.999 44.8-44.8 275.2 275.199 275.2-275.199 44.8 44.8-320 319.999z" />
<glyph unicode="&#xe90d;" d="M0 427.52c0-271.459 220.061-491.52 491.52-491.52s491.52 220.061 491.52 491.52c0 271.459-220.061 491.52-491.52 491.52s-491.52-220.061-491.52-491.52z" />
<glyph unicode="&#xe90e;" d="M312.304 427.52l230.4-230.4 32.256 32.256-198.144 198.144 198.144 198.144-32.256 32.256-230.4-230.4z" />
<glyph unicode="&#xe90f;" glyph-name="credit-card" d="M0 704c0 33.948 13.486 66.505 37.49 90.51s56.562 37.49 90.51 37.49h768c33.946 0 66.505-13.486 90.509-37.49s37.491-56.562 37.491-90.51v-512c0-33.946-13.487-66.505-37.491-90.509s-56.563-37.491-90.509-37.491h-768c-33.948 0-66.505 13.487-90.51 37.491s-37.49 56.563-37.49 90.509v512zM128 768c-16.974 0-33.253-6.743-45.255-18.745s-18.745-28.281-18.745-45.255v-64h896v64c0 16.974-6.741 33.253-18.743 45.255s-28.284 18.745-45.257 18.745h-768zM960 512h-896v-320c0-16.973 6.743-33.254 18.745-45.257s28.281-18.743 45.255-18.743h768c16.973 0 33.254 6.741 45.257 18.743s18.743 28.284 18.743 45.257v320zM128 320c0 16.973 6.743 33.254 18.745 45.257s28.281 18.743 45.255 18.743h64c16.974 0 33.253-6.741 45.255-18.743s18.745-28.284 18.745-45.257v-64c0-16.973-6.743-33.254-18.745-45.257s-28.281-18.743-45.255-18.743h-64c-16.974 0-33.253 6.741-45.255 18.743s-18.745 28.284-18.745 45.257v64z" />
<glyph unicode="&#xe910;" glyph-name="edit" d="M963.408 723.342l-166.969 167.822c-11.031 10.978-25.964 17.14-41.529 17.14s-30.492-6.162-41.529-17.14l-591.928-591.076-54.044-233.244c-1.865-8.528-1.801-17.362 0.187-25.862s5.849-16.447 11.301-23.262c5.452-6.815 12.358-12.322 20.213-16.128s16.461-5.808 25.189-5.86c4.066-0.41 8.164-0.41 12.231 0l235.804 54.044 591.075 590.507c10.98 11.034 17.141 25.965 17.141 41.529s-6.161 30.495-17.141 41.529v0zM343.888 100.978l-221.013-46.364 50.347 216.747 442.879 441.173 170.667-170.667-442.879-440.889zM824.883 583.111l-170.667 170.667 98.987 98.418 167.822-170.667-96.142-98.418z" />
<glyph unicode="&#xe911;" d="M1024 427.52c0-271.459-220.061-491.52-491.52-491.52s-491.52 220.061-491.52 491.52c0 271.459 220.061 491.52 491.52 491.52s491.52-220.061 491.52-491.52z" />
<glyph unicode="&#xe912;" d="M711.696 427.52l-230.4-230.4-32.256 32.256 198.144 198.144-198.144 198.144 32.256 32.256 230.4-230.4z" />
<glyph unicode="&#xe913;" glyph-name="lock" d="M832 512h-64v128c0 67.895-26.97 133.010-74.982 181.019-48.009 48.009-113.122 74.981-181.018 74.981s-133.010-26.971-181.019-74.981c-48.009-48.009-74.981-113.124-74.981-181.019v-128h-64l-64-64v-384l64-64h640l64 64v384l-64 64zM320 640c0 50.921 20.229 99.758 56.236 135.764s84.842 56.236 135.764 56.236c50.923 0 99.759-20.229 135.765-56.236s56.235-84.843 56.235-135.764v-128h-384v128zM832 64h-640v384h640v-384z" />
<glyph unicode="&#xe914;" horiz-adv-x="1336" d="M1085.217 832h-834.783c-22.139 0-43.373-6.743-59.028-18.745s-24.45-28.282-24.45-45.255v-640c0-16.972 8.795-33.253 24.45-45.256s36.888-18.744 59.028-18.744h834.783c22.136 0 43.373 6.741 59.031 18.744 15.654 12.003 24.447 28.285 24.447 45.256v640c0 16.973-8.793 33.253-24.447 45.255-15.658 12.002-36.895 18.745-59.031 18.745zM250.435 128v640h834.783v-640h-834.783z" />
<glyph unicode="&#xe915;" horiz-adv-x="1336" d="M657.488 385.857l-489.738 320 68.563 44.8 421.175-275.2 421.176 275.2 68.563-44.8-489.739-320z" />
<glyph unicode="&#xe916;" glyph-name="ic_ellipsis" d="M512 618.667c46.933 0 85.333 38.4 85.333 85.333s-38.4 85.333-85.333 85.333-85.333-38.4-85.333-85.333 38.4-85.333 85.333-85.333zM512 533.333c-46.933 0-85.333-38.4-85.333-85.333s38.4-85.333 85.333-85.333 85.333 38.4 85.333 85.333-38.4 85.333-85.333 85.333zM512 277.333c-46.933 0-85.333-38.4-85.333-85.333s38.4-85.333 85.333-85.333 85.333 38.4 85.333 85.333-38.4 85.333-85.333 85.333z" />
<glyph unicode="&#xe918;" glyph-name="phone" d="M831.994 32h-5.44c-628.801 36.16-718.081 566.72-730.561 728.64-1.005 12.589 0.483 25.254 4.38 37.267s10.126 23.14 18.331 32.741c8.204 9.602 18.223 17.491 29.481 23.213s23.536 9.169 36.128 10.139h176.32c12.818 0.012 25.344-3.825 35.956-11.013s18.821-17.399 23.564-29.307l48.64-119.68c4.684-11.633 5.845-24.387 3.342-36.675s-8.561-23.571-17.422-32.445l-68.16-68.8c10.647-60.504 39.622-116.277 83.005-159.775s99.080-72.619 159.555-83.425l69.441 68.8c9.005 8.763 20.397 14.68 32.742 17.013 12.352 2.333 25.114 0.979 36.698-3.893l120.64-48.32c11.725-4.892 21.734-13.165 28.742-23.766s10.707-23.044 10.618-35.754v-168.96c0-25.459-10.118-49.882-28.122-67.885s-42.419-28.115-67.878-28.115zM191.992 800c-8.487 0-16.627-3.372-22.627-9.373s-9.373-14.14-9.373-22.627v-2.56c14.72-189.44 109.12-637.44 670.081-669.44 4.205-0.262 8.416 0.314 12.397 1.683 3.987 1.376 7.654 3.52 10.81 6.317 3.149 2.79 5.715 6.182 7.558 9.971 1.837 3.789 2.912 7.904 3.155 12.109v170.88l-120.64 48.32-91.84-91.2-15.361 1.92c-278.4 34.88-316.16 313.28-316.16 316.16l-1.92 15.36 90.88 91.84-48 120.64h-168.96z" />
<glyph unicode="&#xe919;" glyph-name="save" horiz-adv-x="1067" d="M440.956 294.997l-140.5 140.501-60.331-60.331 200.831-200.832 414.165 414.165-60.331 60.331-353.835-353.835z" />
<glyph unicode="&#xe91a;" glyph-name="search" horiz-adv-x="964" d="M903.523 58.44l-227.388 228.593c54.362 65.59 81.366 149.6 75.409 234.58-5.963 84.981-44.43 164.399-107.412 221.76-62.98 57.361-145.638 88.257-230.804 86.269s-166.292-36.706-226.53-96.943c-60.238-60.238-94.956-141.364-96.944-226.53s28.908-167.822 86.27-230.804c57.361-62.982 136.78-101.448 221.76-107.412 84.98-5.957 168.99 21.046 234.58 75.409l228.593-227.388 42.466 42.466zM150.582 497.857c0 53.611 15.897 106.017 45.682 150.592s72.118 79.318 121.648 99.833c49.529 20.516 104.030 25.884 156.611 15.425s100.878-36.275 138.788-74.183c37.906-37.908 63.723-86.206 74.18-138.786 10.463-52.58 5.090-107.081-15.42-156.611-20.516-49.528-55.26-91.861-99.836-121.648s-96.982-45.682-150.592-45.682c-71.889 0-140.834 28.558-191.668 79.39s-79.391 119.78-79.391 191.669z" />
<glyph unicode="&#xe91b;" glyph-name="settings" d="M863.996 423.68v48.96l61.44 53.76c11.328 9.982 18.761 23.647 20.983 38.579 2.227 14.932-0.9 30.17-8.823 43.021l-75.52 128c-5.611 9.719-13.679 17.792-23.394 23.409-9.719 5.617-20.74 8.579-31.966 8.591-6.955 0.053-13.871-1.027-20.48-3.2l-77.76-26.24c-13.423 8.921-27.426 16.939-41.92 24l-16.32 80.64c-2.923 14.733-10.94 27.967-22.639 37.385s-26.342 14.423-41.361 14.135h-149.76c-15.016 0.288-29.656-4.716-41.357-14.135s-19.715-22.653-22.641-37.385l-16.32-80.64c-14.594-7.059-28.705-15.077-42.24-24l-76.16 27.52c-6.679 1.74-13.594 2.388-20.48 1.92-11.223-0.012-22.246-2.974-31.963-8.591s-17.786-13.69-23.397-23.409l-75.52-128c-7.469-12.832-10.245-27.861-7.852-42.514s9.807-28.018 20.972-37.806l60.48-55.36v-48.96l-60.48-53.76c-11.479-9.856-19.096-23.458-21.498-38.4-2.402-14.938 0.567-30.242 8.378-43.2l75.52-128c5.612-9.719 13.68-17.792 23.397-23.411 9.716-5.615 20.739-8.576 31.963-8.589 6.955-0.051 13.872 1.028 20.48 3.2l77.76 26.24c13.425-8.922 27.43-16.939 41.92-24l16.32-80.64c2.926-14.733 10.941-27.968 22.641-37.385 11.7-9.421 26.341-14.421 41.357-14.135h151.040c15.019-0.286 29.662 4.715 41.361 14.135 11.699 9.417 19.716 22.652 22.639 37.385l16.32 80.64c14.596 7.057 28.706 15.078 42.24 24l77.44-26.24c6.609-2.172 13.525-3.251 20.48-3.2 11.226 0.013 22.246 2.974 31.966 8.589 9.715 5.619 17.783 13.692 23.394 23.411l72.96 128c7.471 12.83 10.249 27.861 7.855 42.513-2.394 14.656-9.809 28.019-20.975 37.807l-60.48 55.36zM806.716 192l-109.76 37.12c-25.694-21.764-55.057-38.775-86.72-50.24l-22.72-114.88h-151.040l-22.718 113.6c-31.411 11.789-60.617 28.774-86.4 50.24l-110.080-35.84-75.52 128 87.040 76.8c-5.917 33.126-5.917 67.034 0 100.16l-87.040 79.040 75.52 128 109.76-37.12c25.694 21.763 55.059 38.776 86.72 50.24l22.718 114.88h151.040l22.72-113.6c31.411-11.79 60.621-28.773 86.4-50.24l110.080 35.84 75.52-128-87.040-76.8c5.918-33.126 5.918-67.034 0-100.16l87.040-79.040-75.52-128zM512 256c-37.973 0-75.093 11.26-106.669 32.358-31.575 21.099-56.183 51.085-70.716 86.165-14.532 35.085-18.334 73.69-10.926 110.933s25.694 71.456 52.546 98.307c26.852 26.852 61.064 45.138 98.307 52.546s75.849 3.606 110.933-10.926c35.081-14.532 65.067-39.141 86.165-70.716 21.099-31.576 32.358-68.696 32.358-106.669 0.256-25.284-4.535-50.368-14.093-73.779s-23.689-44.676-41.57-62.558c-17.882-17.882-39.147-32.013-62.558-41.57s-48.495-14.349-73.779-14.093zM512 576c-16.917 0.394-33.737-2.647-49.446-8.94-15.706-6.293-29.973-15.707-41.94-27.673-11.965-11.967-21.379-26.235-27.673-41.94-6.293-15.71-9.334-32.529-8.94-49.446-0.394-16.917 2.647-33.737 8.94-49.446 6.293-15.706 15.707-29.978 27.673-41.941s26.235-21.38 41.94-27.674c15.71-6.293 32.529-9.331 49.446-8.939 16.917-0.393 33.737 2.645 49.446 8.939 15.706 6.293 29.978 15.71 41.941 27.674s21.38 26.236 27.674 41.941c6.293 15.71 9.331 32.529 8.939 49.446 0.393 16.917-2.645 33.737-8.939 49.446-6.293 15.706-15.71 29.973-27.674 41.94-11.964 11.965-26.236 21.379-41.941 27.673-15.71 6.293-32.529 9.334-49.446 8.94z" />
<glyph unicode="&#xe91d;" glyph-name="trash" d="M384.031 576h64v-384h-64v384zM576.031 576h64.001v-384h-64.001v384zM128.031 768v-64h64v-640c0-16.973 6.743-33.254 18.745-45.254s28.281-18.746 45.255-18.746h512.001c16.973 0 33.254 6.746 45.254 18.746s18.746 28.282 18.746 45.254v640h64v64h-768.001zM256.031 64v640h512.001v-640h-512.001zM384.031 896h256.001v-64h-256.001v64z" />
<glyph unicode="&#xe91e;" glyph-name="upload" d="M52.059 459.853c7.988 0 15.648-3.173 21.296-8.821s8.821-13.308 8.821-21.296v-210.822c0-15.974 6.346-31.298 17.642-42.592 11.297-11.3 26.617-17.643 42.593-17.643h722.826c15.974 0 31.292 6.343 42.592 17.643 11.294 11.294 17.643 26.618 17.643 42.592v210.822c0 7.988 3.168 15.649 8.818 21.296s13.306 8.821 21.299 8.821c7.987 0 15.643-3.173 21.293-8.821s8.824-13.308 8.824-21.296v-210.822c0-31.955-12.698-62.597-35.286-85.185-22.594-22.594-53.236-35.286-85.185-35.286h-722.826c-31.951 0-62.593 12.692-85.186 35.286-22.593 22.588-35.285 53.23-35.285 85.185v210.822c0 7.988 3.173 15.649 8.821 21.296s13.309 8.821 21.296 8.821v0zM323.118 649.353c5.648-5.646 13.307-8.818 21.293-8.818s15.645 3.171 21.293 8.818l138.12 138.18 138.122-138.12c2.777-2.877 6.102-5.171 9.776-6.749s7.626-2.409 11.625-2.444c3.994-0.034 7.963 0.728 11.662 2.242 3.704 1.514 7.066 3.751 9.897 6.578 2.825 2.828 5.060 6.19 6.578 9.892 1.512 3.701 2.277 7.667 2.241 11.666s-0.867 7.951-2.446 11.625c-1.578 3.674-3.873 6.998-6.746 9.776l-159.385 159.383c-2.798 2.805-6.121 5.030-9.78 6.548s-7.581 2.3-11.543 2.3c-3.962 0-7.884-0.781-11.543-2.3s-6.982-3.744-9.78-6.548l-159.383-159.383c-2.805-2.798-5.030-6.121-6.548-9.78s-2.3-7.581-2.3-11.543c0-3.962 0.782-7.884 2.3-11.543s3.743-6.982 6.548-9.78zM503.824 821.265c7.988 0 15.648-3.173 21.296-8.821s8.821-13.308 8.821-21.296v-481.881c0-7.987-3.173-15.649-8.821-21.299-5.648-5.644-13.308-8.818-21.296-8.818s-15.649 3.174-21.297 8.818c-5.648 5.65-8.821 13.312-8.821 21.299v481.881c0 7.988 3.173 15.648 8.821 21.296s13.309 8.821 21.297 8.821v0z" />
<glyph unicode="&#xe91f;" glyph-name="user" d="M858.505 196.399c-18.867 44.685-46.242 85.269-80.602 119.501-34.257 34.33-74.837 61.7-119.501 80.602-0.401 0.201-0.798 0.299-1.199 0.499 62.298 45.001 102.801 118.298 102.801 200.999 0 137-111.002 248-248 248-137.002 0-248.002-111-248.002-248 0-82.702 40.5-155.999 102.8-201.102-0.4-0.196-0.8-0.299-1.2-0.499-44.8-18.897-85-45.999-119.5-80.597-34.329-34.257-61.7-74.837-80.6-119.501-18.568-43.725-28.582-90.607-29.5-138.099-0.027-1.071 0.16-2.129 0.55-3.123s0.975-1.903 1.721-2.667c0.745-0.764 1.637-1.37 2.621-1.783s2.041-0.627 3.108-0.627h60c4.4 0 7.9 3.499 8 7.799 2 77.201 33 149.5 87.8 204.301 56.7 56.7 132.001 87.898 212.202 87.898 80.196 0 155.499-31.198 212.198-87.898 54.801-54.801 85.798-127.1 87.799-204.301 0.102-4.399 3.601-7.799 8-7.799h60.002c1.067 0 2.125 0.213 3.106 0.627 0.986 0.414 1.877 1.020 2.62 1.783 0.747 0.764 1.331 1.673 1.724 2.667 0.388 0.994 0.576 2.052 0.55 3.123-1.003 47.799-10.901 94.298-29.5 138.197v0zM512.004 426.001c-45.901 0-89.102 17.899-121.602 50.398s-50.4 75.701-50.4 121.601c0 45.9 17.9 89.1 50.4 121.6s75.701 50.4 121.602 50.4c45.897 0 89.097-17.9 121.6-50.4 32.499-32.5 50.398-75.7 50.398-121.6s-17.899-89.102-50.398-121.601c-32.503-32.499-75.703-50.398-121.6-50.398z" />
<glyph unicode="&#xe920;" glyph-name="user-purple" d="M858.502 196.403c-18.861 44.678-46.24 85.267-80.602 119.494-34.253 34.332-74.835 61.702-119.501 80.602-0.397 0.2-0.8 0.3-1.197 0.5 62.298 45 102.797 118.3 102.797 201 0 137-110.995 248-247.997 248-137 0-248-111-248-248 0-82.7 40.5-156 102.8-201.1-0.4-0.2-0.8-0.3-1.2-0.5-44.8-18.9-85-46-119.5-80.598-34.329-34.259-61.699-74.842-80.6-119.501-18.568-43.725-28.582-90.605-29.5-138.099-0.027-1.069 0.161-2.131 0.55-3.123s0.975-1.901 1.721-2.662c0.746-0.768 1.636-1.376 2.62-1.786 0.984-0.416 2.041-0.634 3.108-0.634h60c4.4 0 7.9 3.501 8 7.802 2 77.203 33 149.504 87.8 204.301 56.7 56.698 132 87.901 212.2 87.901s155.498-31.203 212.202-87.901c54.797-54.797 85.798-127.098 87.795-204.301 0.102-4.397 3.603-7.802 8-7.802h60c1.069 0 2.125 0.218 3.11 0.634 0.986 0.41 1.875 1.018 2.624 1.786 0.742 0.762 1.325 1.67 1.715 2.662s0.582 2.054 0.55 3.123c-0.998 47.795-10.899 94.298-29.498 138.202zM512.003 426c-45.9 0-89.1 17.9-121.6 50.4s-50.4 75.7-50.4 121.6c0 45.9 17.9 89.1 50.4 121.6s75.7 50.4 121.6 50.4c45.9 0 89.1-17.9 121.6-50.4 32.503-32.5 50.397-75.7 50.397-121.6s-17.894-89.1-50.397-121.6c-32.5-32.5-75.7-50.4-121.6-50.4z" />
<glyph unicode="&#xe921;" glyph-name="ic_book" d="M256 21.333h640v85.333h-639.488c-19.712 0.512-43.179 8.32-43.179 42.667s23.467 42.155 43.179 42.667h639.488v597.333c0 47.061-38.272 85.333-85.333 85.333h-554.667c-51.456 0-128-34.091-128-128v-597.333c0-93.909 76.544-128 128-128zM213.333 618.667v128c0 34.347 23.467 42.155 42.667 42.667h554.667v-512h-597.333v341.333zM341.333 704h384v-85.333h-384v85.333z" />
<glyph unicode="&#xe922;" glyph-name="ic_course" d="M512 832l-469.333-256 170.667-93.013v-256l298.667-162.987 298.667 162.987v256l85.333 46.507v-294.827h85.333v341.333l-469.333 256zM802.987 576l-290.987-158.72-290.987 158.72 290.987 158.72 290.987-158.72zM725.333 277.333l-213.333-116.053-213.333 116.053v159.147l213.333-116.48 213.333 116.48v-159.147z" />
<glyph unicode="&#xe923;" glyph-name="ic_dashboard" d="M810.667 746.667v-85.333h-170.667v85.333h170.667zM384 746.667v-256h-170.667v256h170.667zM810.667 405.333v-256h-170.667v256h170.667zM384 234.667v-85.333h-170.667v85.333h170.667zM896 832h-341.333v-256h341.333v256zM469.333 832h-341.333v-426.667h341.333v426.667zM896 490.667h-341.333v-426.667h341.333v426.667zM469.333 320h-341.333v-256h341.333v256z" />
<glyph unicode="&#xe924;" d="M128 106.667h768v512h-768v-512zM384 533.333l298.667-170.667-298.667-170.667v341.333z" />
<glyph unicode="&#xe925;" d="M384 533.333v-341.333l298.667 170.667-298.667 170.667zM896 704h-323.413l140.373 140.373-30.293 30.293-170.667-170.667h-1.28l-170.667 170.667-29.44-30.293 139.947-140.373h-322.56c-46.933 0-85.333-38.4-85.333-85.333v-512c0-46.933 38.4-85.333 85.333-85.333h768c46.933 0 85.333 38.4 85.333 85.333v512c0 46.933-38.4 85.333-85.333 85.333zM896 106.667h-768v512h768v-512z" />
<glyph unicode="&#xe926;" glyph-name="ic_notes" d="M256 704c0 11.316 4.495 22.168 12.497 30.17s18.854 12.497 30.17 12.497h426.667c11.315 0 22.17-4.495 30.17-12.497s12.497-18.854 12.497-30.17c0-11.316-4.497-22.168-12.497-30.17s-18.854-12.497-30.17-12.497h-426.667c-11.316 0-22.168 4.495-30.17 12.497s-12.497 18.854-12.497 30.17zM256 533.333c0 11.316 4.495 22.168 12.497 30.17s18.854 12.497 30.17 12.497h426.667c11.315 0 22.17-4.495 30.17-12.497s12.497-18.854 12.497-30.17c0-11.315-4.497-22.17-12.497-30.17s-18.854-12.497-30.17-12.497h-426.667c-11.316 0-22.168 4.497-30.17 12.497s-12.497 18.854-12.497 30.17zM298.667 405.333c-11.316 0-22.168-4.497-30.17-12.497s-12.497-18.854-12.497-30.17c0-11.315 4.495-22.17 12.497-30.17s18.854-12.497 30.17-12.497h426.667c11.315 0 22.17 4.497 30.17 12.497s12.497 18.854 12.497 30.17c0 11.315-4.497 22.17-12.497 30.17s-18.854 12.497-30.17 12.497h-426.667zM256 192c0 11.315 4.495 22.17 12.497 30.17s18.854 12.497 30.17 12.497h170.667c11.315 0 22.17-4.497 30.17-12.497s12.497-18.854 12.497-30.17c0-11.315-4.497-22.17-12.497-30.17s-18.854-12.497-30.17-12.497h-170.667c-11.316 0-22.168 4.497-30.17 12.497s-12.497 18.854-12.497 30.17zM85.333 789.333v-682.667c0-33.946 13.486-66.505 37.49-90.509s56.562-37.491 90.51-37.491h597.333c33.946 0 66.505 13.487 90.509 37.491s37.491 56.563 37.491 90.509v682.667c0 33.948-13.487 66.505-37.491 90.51s-56.563 37.49-90.509 37.49h-597.333c-33.948 0-66.505-13.486-90.51-37.49s-37.49-56.562-37.49-90.51zM213.333 832h597.333c11.315 0 22.17-4.495 30.17-12.497s12.497-18.854 12.497-30.17v-682.667c0-11.315-4.497-22.17-12.497-30.17s-18.854-12.497-30.17-12.497h-597.333c-11.316 0-22.168 4.497-30.17 12.497s-12.497 18.854-12.497 30.17v682.667c0 11.316 4.495 22.168 12.497 30.17s18.854 12.497 30.17 12.497z" />
<glyph unicode="&#xe927;" glyph-name="ic_time" d="M885.815 541.334h-236.465c-4.064 0-7.389-3.36-7.389-7.467v-44.8c0-4.106 3.325-7.466 7.389-7.466h236.465c4.062 0 7.386 3.36 7.386 7.466v44.8c0 4.107-3.325 7.467-7.386 7.467zM762.040 414.4h-112.691c-4.064 0-7.389-3.36-7.389-7.466v-44.8c0-4.107 3.325-7.467 7.389-7.467h112.691c4.062 0 7.386 3.36 7.386 7.467v44.8c0 4.106-3.325 7.466-7.386 7.466zM453.807 624.867h-39.995c-5.727 0-10.345-4.667-10.345-10.453v-231.467c0-3.36 1.57-6.44 4.249-8.4l137.535-101.36c4.618-3.36 11.084-2.427 14.409 2.24l23.739 32.76v0.094c3.325 4.667 2.309 11.2-2.309 14.56l-117.030 85.494v206.080c0.093 5.786-4.618 10.453-10.252 10.453zM756.34 296.893h-53.391c-5.175 0-10.069-2.707-12.841-7.186-11.728-18.76-25.398-36.121-41.101-51.988-27.064-27.348-58.561-48.811-93.568-63.747-36.301-15.49-74.818-23.334-114.536-23.334-39.81 0-78.328 7.844-114.536 23.334-35.008 14.937-66.505 36.4-93.568 63.747s-48.309 59.175-63.087 94.548c-15.333 36.587-23.093 75.507-23.093 115.734s7.759 79.053 23.093 115.733c14.778 35.373 36.023 67.2 63.087 94.547s58.561 48.813 93.568 63.747c36.208 15.493 74.818 23.334 114.536 23.334 39.811 0 78.328-7.84 114.536-23.334 35.007-14.933 66.505-36.4 93.568-63.747 15.703-15.867 29.373-33.227 41.101-51.986 2.772-4.48 7.666-7.187 12.841-7.187h53.391c6.369 0 10.438 6.72 7.571 12.414-60.225 121.053-182.332 199.733-318.667 201.32-199.607 2.52-365.408-162.587-365.777-364.093-0.369-201.88 161.552-365.679 361.343-365.679 138.090 0 262.234 78.957 323.101 201.413 2.867 5.693-1.29 12.414-7.571 12.414z" />
<glyph unicode="&#xe928;" glyph-name="ic_topics" d="M928 832h-352l-22.4-9.6-41.6-40.96-41.6 40.96-22.4 9.6h-352l-32-32v-640l32-32h338.56l55.040-54.4h44.8l55.040 54.4h338.56l32 32v640l-32 32zM480 171.52l-11.52 10.88-20.48 9.6h-320v576h306.56l47.36-47.36-1.92-549.12zM896 192h-320l-22.4-9.6-8.96-8.32v549.12l44.8 44.8h306.56v-576zM384 640h-192v-64h192v64zM384 384h-192v-64h192v64zM192 512h192v-64h-192v64zM832 640h-192v-64h192v64zM640 512h192v-64h-192v64zM640 384h192v-64h-192v64z" />
<glyph unicode="&#xe92a;" glyph-name="ic_videos" d="M170.667 618.667h-85.333v-512c0-47.061 38.272-85.333 85.333-85.333h512v85.333h-512v512zM853.333 874.667h-512c-22.632 0-44.337-8.99-60.34-24.994s-24.994-37.708-24.994-60.34v-512c0-22.63 8.99-44.335 24.994-60.339s37.708-24.994 60.34-24.994h512c22.63 0 44.335 8.99 60.339 24.994s24.994 37.709 24.994 60.339v512c0 22.632-8.99 44.337-24.994 60.34s-37.709 24.994-60.339 24.994zM469.333 362.667v341.333l298.667-170.667-298.667-170.667z" />
</font>
</defs>
</svg>
